<svg className="w-full" viewBox="0 0 411 83" fill="none" xmlns="http://www.w3.org/2000/svg"><path d="M54.225 48.095l7.158 1.455c6.273 1.292 12.064 3.716 12.064 9.776 0 5.656-5.308 9.292-12.868 9.292-8.203 0-13.592-4.12-15.28-12.12H36.29c1.367 12.282 10.455 19.796 23.966 19.796 11.34 0 22.438-6.06 22.438-17.695 0-11.797-10.213-15.352-19.543-17.29l-6.916-1.455c-4.986-1.05-8.847-3.555-8.847-8.403 0-6.14 7.319-8.16 11.581-8.16 5.55 0 11.903 2.1 13.753 9.049h8.847c-2.252-11.797-11.501-16.726-22.198-16.726-9.811 0-21.312 5.171-21.312 16.24 0 9.858 7.882 14.544 16.165 16.241zM99.468 38.076V16.665h-8.364v58.578h8.364v-23.35c0-8.646 3.539-13.898 10.777-13.898 7.882 0 8.927 5.818 8.927 12.12v25.128h8.364v-27.39c0-10.1-4.021-16.887-14.476-16.887-6.756 0-11.099 2.828-13.592 7.11zM146.356 16.665h-8.364v9.291h8.364v-9.291zm0 15.109h-8.364v43.47h8.364v-43.47zM159.155 28.865v2.909h-6.032v6.383h6.032v37.086h8.364V38.157h8.364v-6.383h-8.364v-2.99c0-4.524.884-5.413 5.147-5.413h3.217v-6.706h-3.78c-10.133 0-12.948 2.585-12.948 12.2zM184.919 20.624v11.15h-6.595v6.383h6.595v25.936c0 8.969 1.93 11.15 10.697 11.15h6.112v-6.706h-3.539c-4.182 0-4.906-1.131-4.906-5.575V38.157h8.525v-6.383h-8.525v-11.15h-8.364zM257.062 64.012l-10.777-47.347h-10.696l-10.053 47.347-10.294-47.347h-10.053l14.315 58.578h11.018l10.375-46.62 10.535 46.62h11.018l14.075-58.578h-9.651l-9.812 47.347zM277.731 63.528c0 7.918 6.675 12.766 15.441 12.766 6.997 0 11.903-2.424 14.477-6.787.16 2.747.402 4.04.723 5.736h8.043c-.804-3.878-1.206-9.21-1.206-15.674 0-1.859.16-9.373.16-10.424.161-13.008-6.273-18.422-17.452-18.422-9.892 0-17.452 5.576-18.175 14.787h8.444c.322-5.333 3.619-8.323 9.41-8.323 5.308 0 9.329 2.586 9.329 10.262v.889c-16.809 1.777-29.194 4.605-29.194 15.19zm29.596-8.969v3.151c0 8.646-5.388 12.12-12.305 12.12-5.067 0-8.203-2.505-8.203-6.464 0-5.656 7.077-7.514 20.508-8.807zM334.064 75.243V16.665H325.7v58.578h8.364zM353.699 16.665h-8.364v58.578h8.364v-14.22l4.906-5.252 13.752 19.472h9.973l-18.015-25.532 16.808-17.937H370.91l-17.211 18.584V16.665zM387.757 1.96v12.685h2.292V1.959h4.665V0h-11.641v1.96h4.684zM402.495 14.645h2.373l3.88-12.322v12.322H411V0h-3.679l-3.639 11.958L400.042 0h-3.679v14.645h2.252V2.323l3.88 12.322z" fill="currentColor"/><path className="opacity-0" d="M0 83h32.893v-7.757H0V83z" fill="none"/></svg>