<?xml version="1.0" standalone="no"?>
<!DOCTYPE svg PUBLIC "-//W3C//DTD SVG 20010904//EN"
 "http://www.w3.org/TR/2001/REC-SVG-20010904/DTD/svg10.dtd">
<svg version="1.0" xmlns="http://www.w3.org/2000/svg"
 width="200.000000pt" height="200.000000pt" viewBox="0 0 200.000000 200.000000"
 preserveAspectRatio="xMidYMid meet">
<metadata>
Created by potrace 1.14, written by Peter Selinger 2001-2017
</metadata>
<g transform="translate(0.000000,200.000000) scale(0.100000,-0.100000)"
fill="#000000" stroke="none">
<path d="M1587 1282 c6 -4 13 -21 16 -37 l4 -30 2 32 c0 17 7 34 14 36 6 3 -1
6 -18 6 -16 0 -25 -3 -18 -7z"/>
<path d="M1641 1253 c1 -34 2 -35 9 -13 5 16 8 19 9 8 2 -27 22 -32 29 -7 l6
24 7 -25 c6 -22 7 -20 8 13 1 43 -15 50 -26 10 l-6 -28 -10 28 c-13 39 -27 33
-26 -10z"/>
<path d="M715 1221 c-87 -22 -133 -78 -121 -146 11 -56 55 -85 166 -111 81
-18 110 -40 110 -84 0 -86 -166 -91 -207 -6 -14 31 -22 36 -50 36 -41 0 -43
-17 -9 -75 32 -54 88 -80 171 -80 102 0 171 57 169 141 -1 70 -41 102 -161
130 -88 20 -113 36 -113 74 0 39 32 60 94 60 43 0 53 -4 82 -36 26 -27 41 -35
61 -32 33 4 33 26 1 71 -33 46 -127 74 -193 58z"/>
<path d="M980 1210 c0 -9 70 -296 101 -412 9 -37 11 -38 53 -38 l44 0 15 68
c8 37 25 113 38 170 13 56 26 102 29 102 3 0 23 -76 44 -170 l39 -170 43 0
c41 0 44 2 53 38 19 71 101 407 101 415 0 5 -17 7 -37 5 l-38 -3 -36 -173
c-20 -95 -39 -175 -41 -177 -2 -2 -22 75 -44 173 l-40 177 -44 0 -43 0 -38
-173 c-20 -96 -39 -175 -41 -178 -2 -2 -22 77 -43 176 l-38 180 -39 0 c-21 0
-38 -5 -38 -10z"/>
<path d="M290 730 l0 -30 130 0 130 0 0 30 0 30 -130 0 -130 0 0 -30z"/>
</g>
</svg>
